<svg viewBox="0 0 24 24" xmlns="http://www.w3.org/2000/svg" xmlns:xlink="http://www.w3.org/1999/xlink" width="24.000000" height="24.000000" fill="none">
	<rect id="icon / 24 / outline / key-square" width="24.000000" height="24.000000" x="0.000000" y="0.000000" fill="rgb(145,151,179)" fill-opacity="0" />
	<path id="Vector" d="M15 22C20 22 22 20 22 15L22 9C22 4 20 2 15 2L9 2C4 2 2 4 2 9L2 15C2 20 4 22 9 22L15 22Z" fill-rule="nonzero" stroke="rgb(145,151,179)" stroke-linecap="round" stroke-linejoin="round" stroke-width="1.5" />
	<path id="Vector" d="M12.1 14.64L9.51001 17.22C9.33001 17.41 8.96001 17.53 8.69001 17.49L7.49001 17.33C7.09001 17.28 6.73001 16.9 6.67001 16.51L6.51001 15.31C6.47001 15.05 6.60001 14.68 6.78001 14.49L9.36001 11.91C8.92001 10.48 9.26001 8.86001 10.39 7.73001C12.01 6.11001 14.65 6.11001 16.28 7.73001C17.9 9.34001 17.9 11.98 16.28 13.61C15.15 14.74 13.53 15.09 12.1 14.64Z" fill-rule="nonzero" stroke="rgb(145,151,179)" stroke-linecap="round" stroke-linejoin="round" stroke-width="1.5" />
	<path id="Vector" d="M10.45 16.28L9.59998 15.42" fill-rule="nonzero" stroke="rgb(145,151,179)" stroke-linecap="round" stroke-linejoin="round" stroke-width="1.5" />
	<path id="Vector" d="M13.3945 10.7L13.4035 10.7" stroke="rgb(145,151,179)" stroke-linecap="round" stroke-linejoin="round" stroke-width="2" />
</svg>
