<svg viewBox="0 0 197.436 43.8876" xmlns="http://www.w3.org/2000/svg" xmlns:xlink="http://www.w3.org/1999/xlink" width="197.435547" height="43.887634" fill="none" customFrame="#000000">
	<defs>
		<g id="pixso_custom_effect_0">
			<effect x="0.000000" y="4.000000" visibility="visible" fill="rgb(0,0,0)" fill-opacity="0.25" effectType="dropShadow" stdDeviation="4" radius="0" />
		</g>
		<filter id="filter_0" width="197.435547" height="43.887634" x="0.000000" y="0.000000" filterUnits="userSpaceOnUse" customEffect="url(#pixso_custom_effect_0)" color-interpolation-filters="sRGB">
			<feFlood flood-opacity="0" result="BackgroundImageFix" />
			<feColorMatrix result="hardAlpha" in="SourceAlpha" type="matrix" values="0 0 0 0 0 0 0 0 0 0 0 0 0 0 0 0 0 0 127 0 " />
			<feOffset dx="0.000000" dy="4.000000" in="hardAlpha" />
			<feGaussianBlur stdDeviation="1.33333337" />
			<feComposite k2="-1" k3="1" in2="hardAlpha" operator="out" />
			<feColorMatrix type="matrix" values="0 0 0 0 0 0 0 0 0 0 0 0 0 0 0 0 0 0 0.25 0 " />
			<feBlend result="effect_dropShadow_1" in2="BackgroundImageFix" mode="normal" />
			<feBlend result="shape" in="SourceGraphic" in2="effect_dropShadow_1" mode="normal" />
		</filter>
		<clipPath id="clipPath_0">
			<rect width="37.000000" height="37.000000" x="0.546326" y="1.000000" fill="rgb(255,255,255)" />
		</clipPath>
	</defs>
	<g id="Group 31" filter="url(#filter_0)">
		<path id="Dashboard" d="M53.6843 10.452C55.591 10.452 57.2637 10.8247 58.7023 11.57C60.1583 12.3153 61.2763 13.3813 62.0563 14.768C62.8537 16.1373 63.2523 17.732 63.2523 19.552C63.2523 21.372 62.8537 22.9667 62.0563 24.336C61.2763 25.688 60.1583 26.7367 58.7023 27.482C57.2637 28.2273 55.591 28.6 53.6843 28.6L47.3403 28.6L47.3403 10.452L53.6843 10.452ZM53.5543 25.506C55.461 25.506 56.9343 24.986 57.9743 23.946C59.0143 22.906 59.5343 21.4413 59.5343 19.552C59.5343 17.6627 59.0143 16.1893 57.9743 15.132C56.9343 14.0573 55.461 13.52 53.5543 13.52L50.9803 13.52L50.9803 25.506L53.5543 25.506ZM65.301 21.346C65.301 19.89 65.587 18.5987 66.159 17.472C66.7484 16.3453 67.537 15.4787 68.525 14.872C69.5304 14.2653 70.6484 13.962 71.879 13.962C72.9537 13.962 73.8897 14.1787 74.687 14.612C75.5017 15.0453 76.1517 15.5913 76.637 16.25L76.637 14.196L80.303 14.196L80.303 28.6L76.637 28.6L76.637 26.494C76.169 27.17 75.519 27.7333 74.687 28.184C73.8724 28.6173 72.9277 28.834 71.853 28.834C70.6397 28.834 69.5304 28.522 68.525 27.898C67.537 27.274 66.7484 26.3987 66.159 25.272C65.587 24.128 65.301 22.8193 65.301 21.346ZM76.637 21.398C76.637 20.514 76.4637 19.76 76.1171 19.136C75.7704 18.4947 75.3024 18.0093 74.713 17.68C74.1237 17.3333 73.491 17.16 72.815 17.16C72.139 17.16 71.515 17.3247 70.943 17.654C70.371 17.9833 69.903 18.4687 69.539 19.11C69.1924 19.734 69.019 20.4793 69.019 21.346C69.019 22.2127 69.1924 22.9753 69.539 23.634C69.903 24.2753 70.371 24.7693 70.943 25.116C71.5324 25.4627 72.1564 25.636 72.815 25.636C73.491 25.636 74.1237 25.4713 74.713 25.142C75.3024 24.7953 75.7704 24.31 76.1171 23.686C76.4637 23.0447 76.637 22.282 76.637 21.398ZM89.6301 28.834C88.4515 28.834 87.3941 28.626 86.4581 28.21C85.5221 27.7767 84.7768 27.196 84.2221 26.468C83.6848 25.74 83.3901 24.934 83.3381 24.05L87.0041 24.05C87.0735 24.6047 87.3421 25.064 87.8101 25.428C88.2955 25.792 88.8935 25.974 89.6041 25.974C90.2975 25.974 90.8348 25.8353 91.2161 25.558C91.6148 25.2807 91.8141 24.9253 91.8141 24.492C91.8141 24.024 91.5715 23.6773 91.0861 23.452C90.6181 23.2093 89.8641 22.9493 88.8241 22.672C87.7495 22.412 86.8655 22.1433 86.1721 21.866C85.4961 21.5887 84.9068 21.164 84.4041 20.592C83.9188 20.02 83.6761 19.2487 83.6761 18.278C83.6761 17.4807 83.9015 16.7527 84.3521 16.094C84.8201 15.4353 85.4788 14.9153 86.3281 14.534C87.1948 14.1527 88.2088 13.962 89.3701 13.962C91.0861 13.962 92.4555 14.3953 93.4781 15.262C94.5008 16.1113 95.0641 17.264 95.1681 18.72L91.6841 18.72C91.6321 18.148 91.3895 17.6973 90.9561 17.368C90.5401 17.0213 89.9768 16.848 89.2661 16.848C88.6075 16.848 88.0961 16.9693 87.7321 17.212C87.3855 17.4547 87.2121 17.7927 87.2121 18.226C87.2121 18.7113 87.4548 19.084 87.9401 19.344C88.4255 19.5867 89.1795 19.838 90.2021 20.098C91.2421 20.358 92.1001 20.6267 92.7761 20.904C93.4521 21.1813 94.0328 21.6147 94.5181 22.204C95.0208 22.776 95.2808 23.5387 95.2981 24.492C95.2981 25.324 95.0641 26.0693 94.5961 26.728C94.1455 27.3867 93.4868 27.9067 92.6201 28.288C91.7708 28.652 90.7741 28.834 89.6301 28.834ZM106.658 13.988C107.75 13.988 108.721 14.2307 109.57 14.716C110.419 15.184 111.078 15.886 111.546 16.822C112.031 17.7407 112.274 18.85 112.274 20.15L112.274 28.6L108.634 28.6L108.634 20.644C108.634 19.5 108.348 18.6247 107.776 18.018C107.204 17.394 106.424 17.082 105.436 17.082C104.431 17.082 103.633 17.394 103.044 18.018C102.472 18.6247 102.186 19.5 102.186 20.644L102.186 28.6L98.5461 28.6L98.5461 9.36L102.186 9.36L102.186 15.99C102.654 15.366 103.278 14.8807 104.058 14.534C104.838 14.17 105.705 13.988 106.658 13.988ZM119.636 16.302C120.104 15.6087 120.745 15.0453 121.56 14.612C122.392 14.1787 123.336 13.962 124.394 13.962C125.624 13.962 126.734 14.2653 127.722 14.872C128.727 15.4787 129.516 16.3453 130.088 17.472C130.677 18.5813 130.972 19.8727 130.972 21.346C130.972 22.8193 130.677 24.128 130.088 25.272C129.516 26.3987 128.727 27.274 127.722 27.898C126.734 28.522 125.624 28.834 124.394 28.834C123.319 28.834 122.374 28.626 121.56 28.21C120.762 27.7767 120.121 27.222 119.636 26.546L119.636 28.6L115.996 28.6L115.996 9.36L119.636 9.36L119.636 16.302ZM127.254 21.346C127.254 20.4793 127.072 19.734 126.708 19.11C126.361 18.4687 125.893 17.9833 125.304 17.654C124.732 17.3247 124.108 17.16 123.432 17.16C122.773 17.16 122.149 17.3333 121.56 17.68C120.988 18.0093 120.52 18.4947 120.156 19.136C119.809 19.7773 119.636 20.5313 119.636 21.398C119.636 22.2647 119.809 23.0187 120.156 23.66C120.52 24.3013 120.988 24.7953 121.56 25.142C122.149 25.4713 122.773 25.636 123.432 25.636C124.108 25.636 124.732 25.4627 125.304 25.116C125.893 24.7693 126.361 24.2753 126.708 23.634C127.072 22.9927 127.254 22.23 127.254 21.346ZM140.273 28.834C138.886 28.834 137.638 28.5307 136.529 27.924C135.419 27.3 134.544 26.4247 133.903 25.298C133.279 24.1713 132.967 22.8713 132.967 21.398C132.967 19.9247 133.287 18.6247 133.929 17.498C134.587 16.3713 135.48 15.5047 136.607 14.898C137.733 14.274 138.99 13.962 140.377 13.962C141.763 13.962 143.02 14.274 144.147 14.898C145.273 15.5047 146.157 16.3713 146.799 17.498C147.457 18.6247 147.787 19.9247 147.787 21.398C147.787 22.8713 147.449 24.1713 146.773 25.298C146.114 26.4247 145.213 27.3 144.069 27.924C142.942 28.5307 141.677 28.834 140.273 28.834ZM140.273 25.662C140.931 25.662 141.547 25.506 142.119 25.194C142.708 24.8647 143.176 24.3793 143.523 23.738C143.869 23.0967 144.043 22.3167 144.043 21.398C144.043 20.0287 143.679 18.98 142.951 18.252C142.24 17.5067 141.365 17.134 140.325 17.134C139.285 17.134 138.409 17.5067 137.699 18.252C137.005 18.98 136.659 20.0287 136.659 21.398C136.659 22.7673 136.997 23.8247 137.673 24.57C138.366 25.298 139.233 25.662 140.273 25.662ZM149.781 21.346C149.781 19.89 150.067 18.5987 150.639 17.472C151.228 16.3453 152.017 15.4787 153.005 14.872C154.01 14.2653 155.128 13.962 156.359 13.962C157.433 13.962 158.369 14.1787 159.167 14.612C159.981 15.0453 160.631 15.5913 161.117 16.25L161.117 14.196L164.783 14.196L164.783 28.6L161.117 28.6L161.117 26.494C160.649 27.17 159.999 27.7333 159.167 28.184C158.352 28.6173 157.407 28.834 156.333 28.834C155.119 28.834 154.01 28.522 153.005 27.898C152.017 27.274 151.228 26.3987 150.639 25.272C150.067 24.128 149.781 22.8193 149.781 21.346ZM161.117 21.398C161.117 20.514 160.943 19.76 160.597 19.136C160.25 18.4947 159.782 18.0093 159.193 17.68C158.603 17.3333 157.971 17.16 157.295 17.16C156.619 17.16 155.995 17.3247 155.423 17.654C154.851 17.9833 154.383 18.4687 154.019 19.11C153.672 19.734 153.499 20.4793 153.499 21.346C153.499 22.2127 153.672 22.9753 154.019 23.634C154.383 24.2753 154.851 24.7693 155.423 25.116C156.012 25.4627 156.636 25.636 157.295 25.636C157.971 25.636 158.603 25.4713 159.193 25.142C159.782 24.7953 160.25 24.31 160.597 23.686C160.943 23.0447 161.117 22.282 161.117 21.398ZM172.238 16.432C172.706 15.6693 173.312 15.0713 174.058 14.638C174.82 14.2047 175.687 13.988 176.658 13.988L176.658 17.81L175.696 17.81C174.552 17.81 173.685 18.0787 173.096 18.616C172.524 19.1533 172.238 20.0893 172.238 21.424L172.238 28.6L168.598 28.6L168.598 14.196L172.238 14.196L172.238 16.432ZM178.434 21.346C178.434 19.89 178.72 18.5987 179.292 17.472C179.881 16.3453 180.678 15.4787 181.684 14.872C182.689 14.2653 183.807 13.962 185.038 13.962C185.974 13.962 186.866 14.17 187.716 14.586C188.565 14.9847 189.241 15.522 189.744 16.198L189.744 9.36L193.436 9.36L193.436 28.6L189.744 28.6L189.744 26.468C189.293 27.1787 188.66 27.7507 187.846 28.184C187.031 28.6173 186.086 28.834 185.012 28.834C183.798 28.834 182.689 28.522 181.684 27.898C180.678 27.274 179.881 26.3987 179.292 25.272C178.72 24.128 178.434 22.8193 178.434 21.346ZM189.77 21.398C189.77 20.514 189.596 19.76 189.25 19.136C188.903 18.4947 188.435 18.0093 187.846 17.68C187.256 17.3333 186.624 17.16 185.948 17.16C185.272 17.16 184.648 17.3247 184.076 17.654C183.504 17.9833 183.036 18.4687 182.672 19.11C182.325 19.734 182.152 20.4793 182.152 21.346C182.152 22.2127 182.325 22.9753 182.672 23.634C183.036 24.2753 183.504 24.7693 184.076 25.116C184.665 25.4627 185.289 25.636 185.948 25.636C186.624 25.636 187.256 25.4713 187.846 25.142C188.435 24.7953 188.903 24.31 189.25 23.686C189.596 23.0447 189.77 22.282 189.77 21.398Z" fill="rgb(0,0,0)" fill-rule="nonzero" />
		<g id="setting 1" clip-path="url(#clipPath_0)" customFrame="url(#clipPath_0)">
			<rect id="setting 1" width="37.000000" height="37.000000" x="0.546326" y="1.000000" fill="rgb(255,255,255)" fill-opacity="0" />
			<path id="Vector" d="M19.0466 35.8876C18.0137 35.8876 16.9654 35.6564 16.1483 35.1784L7.66917 30.2914C4.21583 27.9634 4 27.6089 4 23.9551L4 15.0443C4 11.3905 4.20042 11.0359 7.59208 8.73887L16.1329 3.80553C17.7516 2.86512 20.2954 2.86512 21.9141 3.80553L30.4241 8.70803C33.8774 11.0359 34.0933 11.3905 34.0933 15.0443L34.0933 23.9397C34.0933 27.5934 33.8929 27.948 30.5012 30.2451L21.9604 35.1784C21.1279 35.6564 20.0795 35.8876 19.0466 35.8876ZM19.0466 5.42428C18.3991 5.42428 17.767 5.54762 17.32 5.8097L8.84083 10.7122C6.32792 12.408 6.32792 12.408 6.32792 15.0443L6.32792 23.9397C6.32792 26.5759 6.32792 26.5759 8.9025 28.318L17.32 33.1743C18.2295 33.6984 19.8791 33.6984 20.7887 33.1743L29.2679 28.2718C31.7654 26.5759 31.7654 26.5759 31.7654 23.9397L31.7654 15.0443C31.7654 12.408 31.7654 12.408 29.1908 10.6659L20.7733 5.8097C20.3262 5.54762 19.6941 5.42428 19.0466 5.42428Z" fill="rgb(0,0,0)" fill-rule="nonzero" />
			<path id="Vector" d="M19.0463 25.2812C15.8551 25.2812 13.2651 22.6912 13.2651 19.5C13.2651 16.3088 15.8551 13.7188 19.0463 13.7188C22.2376 13.7188 24.8276 16.3088 24.8276 19.5C24.8276 22.6912 22.2376 25.2812 19.0463 25.2812ZM19.0463 16.0312C17.1347 16.0312 15.5776 17.5883 15.5776 19.5C15.5776 21.4117 17.1347 22.9688 19.0463 22.9688C20.958 22.9688 22.5151 21.4117 22.5151 19.5C22.5151 17.5883 20.958 16.0312 19.0463 16.0312Z" fill="rgb(0,0,0)" fill-rule="nonzero" />
		</g>
	</g>
</svg>
